<?xml version="1.0" encoding="utf-8"?>
<!-- Generator: Adobe Illustrator 16.0.0, SVG Export Plug-In . SVG Version: 6.00 Build 0)  -->
<!DOCTYPE svg PUBLIC "-//W3C//DTD SVG 1.1//EN" "http://www.w3.org/Graphics/SVG/1.1/DTD/svg11.dtd">
<svg version="1.1" id="Layer_1" xmlns="http://www.w3.org/2000/svg" xmlns:xlink="http://www.w3.org/1999/xlink" x="0px" y="0px"
	 width="109px" height="109px" viewBox="0 0 109 109" enable-background="new 0 0 109 109" xml:space="preserve">
<circle fill="#FFFFFF" cx="54.375" cy="54.605" r="54.5"/>
<path fill="#FF0000" d="M81.668,74.35c-0.004-0.904-1.49-2.592-1.496-2.609c-0.05-15.74,2.661-27.816,9.144-42.487
	c-5.503,4.95-10.166,12.112-13.714,20.893c-1.021-9.708-2.196-31.937-2.196-31.937L61.412,48.157L54.11,13.72l-7.303,34.437
	L34.814,18.209c0,0-1.176,22.229-2.196,31.937c-3.548-8.781-8.211-15.943-13.714-20.893C25.388,43.923,28.099,56,28.048,71.74
	c-0.005,0.018-1.491,2.178-1.495,3.084c0.031,0.926-0.193,8.502-0.297,9.451c-0.064,0.928,1.246,2.562,1.252,2.566
	c15.106,4.154,37.276,4.154,53.204,0c0.007-0.002,1.315-1.637,1.253-2.566C81.861,83.322,81.636,75.275,81.668,74.35z"/>
<polygon fill="#FFFFFF" points="35.756,95.156 61.843,78.771 53.619,77.535 70.655,58.953 59.212,59.812 71.747,39.34 
	38.663,69.164 52.231,67.348 37.526,82.723 47.169,82.34 "/>
</svg>
